HIERARCHY
ROOT hip
{
  OFFSET 0 90.174 2.4664
  CHANNELS 6 Xposition Yposition Zposition Zrotation Xrotation Yrotation
  JOINT abdomen
  {
    OFFSET 0 -1.186 -1.5018
    CHANNELS 6 Xposition Yposition Zposition Zrotation Xrotation Yrotation
    JOINT abdomen2
    {
      OFFSET 0 9.964 0.2134
      CHANNELS 6 Xposition Yposition Zposition Zrotation Xrotation Yrotation
      JOINT chest
      {
        OFFSET 0 13.134 -3.2573
        CHANNELS 6 Xposition Yposition Zposition Zrotation Xrotation Yrotation
        JOINT neck
        {
          OFFSET 0 20.686 -1.6905
          CHANNELS 6 Xposition Yposition Zposition Zrotation Xrotation Yrotation
          JOINT head
          {
            OFFSET 0 7.238 -0.1237
            CHANNELS 6 Xposition Yposition Zposition Zrotation Xrotation Yrotation
            End Site
            {
              OFFSET 0 0 0
            }
          }
        }
        JOINT lCollar
        {
          OFFSET 1.7069 20.075 5.0056
          CHANNELS 6 Xposition Yposition Zposition Zrotation Xrotation Yrotation
          JOINT lShldr
          {
            OFFSET 13.6458 -0.047 -4.849
            CHANNELS 6 Xposition Yposition Zposition Zrotation Xrotation Yrotation
            JOINT lForeArm
            {
              OFFSET 28.3255 -0.9759 2.2888
              CHANNELS 6 Xposition Yposition Zposition Zrotation Xrotation Yrotation
              JOINT lHand
              {
                OFFSET 22.1583 -0.53 10.8316
                CHANNELS 6 Xposition Yposition Zposition Zrotation Xrotation Yrotation
                JOINT lThumb1
                {
                  OFFSET 0.786 0.112 2.5817
                  CHANNELS 6 Xposition Yposition Zposition Zrotation Xrotation Yrotation
                  JOINT lThumb2
                  {
                    OFFSET 0.3601 -0.878 4.2331
                    CHANNELS 6 Xposition Yposition Zposition Zrotation Xrotation Yrotation
                    JOINT lThumb2_End
                    {
                      OFFSET 1.8127 -1.216 2.2227
                      CHANNELS 6 Xposition Yposition Zposition Zrotation Xrotation Yrotation
                      End Site
                      {
                        OFFSET 0.0181 -0.0122 0.0222
                      }
                    }
                  }
                }
                JOINT lCarpal1
                {
                  OFFSET 0.9571 1.114 1.7695
                  CHANNELS 6 Xposition Yposition Zposition Zrotation Xrotation Yrotation
                  JOINT lIndex1
                  {
                    OFFSET 4.1246 0.487 4.1451
                    CHANNELS 6 Xposition Yposition Zposition Zrotation Xrotation Yrotation
                    JOINT lIndex2
                    {
                      OFFSET 3.4052 -1.454 2.7682
                      CHANNELS 6 Xposition Yposition Zposition Zrotation Xrotation Yrotation
                      JOINT lIndex2_End
                      {
                        OFFSET 1.4531 -1.795 1.2713
                        CHANNELS 6 Xposition Yposition Zposition Zrotation Xrotation Yrotation
                        End Site
                        {
                          OFFSET 0.0145 -0.0179 0.0127
                        }
                      }
                    }
                  }
                  JOINT lMid1
                  {
                    OFFSET 5.6954 0.21 2.1184
                    CHANNELS 6 Xposition Yposition Zposition Zrotation Xrotation Yrotation
                    JOINT lMid2
                    {
                      OFFSET 3.9766 -1.54 2.3863
                      CHANNELS 6 Xposition Yposition Zposition Zrotation Xrotation Yrotation
                      JOINT lMid2_End
                      {
                        OFFSET 1.4042 -1.926 1.125
                        CHANNELS 6 Xposition Yposition Zposition Zrotation Xrotation Yrotation
                        End Site
                        {
                          OFFSET 0.014 -0.0193 0.0113
                        }
                      }
                    }
                  }
                }
                JOINT lCarpal2
                {
                  OFFSET 2.0956 0.66 -0.3894
                  CHANNELS 6 Xposition Yposition Zposition Zrotation Xrotation Yrotation
                  JOINT lRing1
                  {
                    OFFSET 5.0395 -0.09 2.4971
                    CHANNELS 6 Xposition Yposition Zposition Zrotation Xrotation Yrotation
                    JOINT lRing2
                    {
                      OFFSET 3.7921 -1.552 1.4806
                      CHANNELS 6 Xposition Yposition Zposition Zrotation Xrotation Yrotation
                      JOINT lRing2_End
                      {
                        OFFSET 1.4655 -1.808 0.9609
                        CHANNELS 6 Xposition Yposition Zposition Zrotation Xrotation Yrotation
                        End Site
                        {
                          OFFSET 0.0147 -0.0181 0.0096
                        }
                      }
                    }
                  }
                  JOINT lPinky1
                  {
                    OFFSET 4.9141 -1.269 0.3591
                    CHANNELS 6 Xposition Yposition Zposition Zrotation Xrotation Yrotation
                    JOINT lPinky2
                    {
                      OFFSET 3.1477 -1.685 0.8462
                      CHANNELS 6 Xposition Yposition Zposition Zrotation Xrotation Yrotation
                      JOINT lPinky2_End
                      {
                        OFFSET 0.8055 -1.585 0.7955
                        CHANNELS 6 Xposition Yposition Zposition Zrotation Xrotation Yrotation
                        End Site
                        {
                          OFFSET 0.0081 -0.0158 0.008
                        }
                      }
                    }
                  }
                }
              }
            }
          }
        }
        JOINT rCollar
        {
          OFFSET -1.7069 20.075 5.0056
          CHANNELS 6 Xposition Yposition Zposition Zrotation Xrotation Yrotation
          JOINT rShldr
          {
            OFFSET -13.6458 -0.047 -4.849
            CHANNELS 6 Xposition Yposition Zposition Zrotation Xrotation Yrotation
            JOINT rForeArm
            {
              OFFSET -28.3255 -0.9759 2.2888
              CHANNELS 6 Xposition Yposition Zposition Zrotation Xrotation Yrotation
              JOINT rHand
              {
                OFFSET -22.1583 -0.53 10.8316
                CHANNELS 6 Xposition Yposition Zposition Zrotation Xrotation Yrotation
                JOINT rThumb1
                {
                  OFFSET -0.786 0.112 2.5817
                  CHANNELS 6 Xposition Yposition Zposition Zrotation Xrotation Yrotation
                  JOINT rThumb2
                  {
                    OFFSET -0.3601 -0.878 4.2331
                    CHANNELS 6 Xposition Yposition Zposition Zrotation Xrotation Yrotation
                    JOINT rThumb2_End
                    {
                      OFFSET -1.8127 -1.216 2.2227
                      CHANNELS 6 Xposition Yposition Zposition Zrotation Xrotation Yrotation
                      End Site
                      {
                        OFFSET -0.0181 -0.0122 0.0222
                      }
                    }
                  }
                }
                JOINT rCarpal1
                {
                  OFFSET -0.9571 1.114 1.7695
                  CHANNELS 6 Xposition Yposition Zposition Zrotation Xrotation Yrotation
                  JOINT rIndex1
                  {
                    OFFSET -4.1246 0.487 4.1451
                    CHANNELS 6 Xposition Yposition Zposition Zrotation Xrotation Yrotation
                    JOINT rIndex2
                    {
                      OFFSET -3.4052 -1.454 2.7682
                      CHANNELS 6 Xposition Yposition Zposition Zrotation Xrotation Yrotation
                      JOINT rIndex2_End
                      {
                        OFFSET -1.4531 -1.795 1.2713
                        CHANNELS 6 Xposition Yposition Zposition Zrotation Xrotation Yrotation
                        End Site
                        {
                          OFFSET -0.0145 -0.018 0.0127
                        }
                      }
                    }
                  }
                  JOINT rMid1
                  {
                    OFFSET -5.6954 0.21 2.1184
                    CHANNELS 6 Xposition Yposition Zposition Zrotation Xrotation Yrotation
                    JOINT rMid2
                    {
                      OFFSET -3.9766 -1.54 2.3863
                      CHANNELS 6 Xposition Yposition Zposition Zrotation Xrotation Yrotation
                      JOINT rMid2_End
                      {
                        OFFSET -1.4042 -1.926 1.125
                        CHANNELS 6 Xposition Yposition Zposition Zrotation Xrotation Yrotation
                        End Site
                        {
                          OFFSET -0.014 -0.0193 0.0113
                        }
                      }
                    }
                  }
                }
                JOINT rCarpal2
                {
                  OFFSET -2.0956 0.66 -0.3894
                  CHANNELS 6 Xposition Yposition Zposition Zrotation Xrotation Yrotation
                  JOINT rRing1
                  {
                    OFFSET -5.0395 -0.09 2.4971
                    CHANNELS 6 Xposition Yposition Zposition Zrotation Xrotation Yrotation
                    JOINT rRing2
                    {
                      OFFSET -3.7921 -1.552 1.4806
                      CHANNELS 6 Xposition Yposition Zposition Zrotation Xrotation Yrotation
                      JOINT rRing2_End
                      {
                        OFFSET -1.4655 -1.808 0.9609
                        CHANNELS 6 Xposition Yposition Zposition Zrotation Xrotation Yrotation
                        End Site
                        {
                          OFFSET -0.0147 -0.0181 0.0096
                        }
                      }
                    }
                  }
                  JOINT rPinky1
                  {
                    OFFSET -4.9141 -1.269 0.3592
                    CHANNELS 6 Xposition Yposition Zposition Zrotation Xrotation Yrotation
                    JOINT rPinky2
                    {
                      OFFSET -3.1477 -1.685 0.8462
                      CHANNELS 6 Xposition Yposition Zposition Zrotation Xrotation Yrotation
                      JOINT rPinky2_End
                      {
                        OFFSET -0.8055 -1.585 0.7955
                        CHANNELS 6 Xposition Yposition Zposition Zrotation Xrotation Yrotation
                        End Site
                        {
                          OFFSET -0.0081 -0.0158 0.008
                        }
                      }
                    }
                  }
                }
              }
            }
          }
        }
      }
    }
  }
  JOINT lThigh
  {
    OFFSET 8.367 -8.2066 0.5982
    CHANNELS 6 Xposition Yposition Zposition Zrotation Xrotation Yrotation
    JOINT lShin
    {
      OFFSET 2.1923 -43.463 -0.4932
      CHANNELS 6 Xposition Yposition Zposition Zrotation Xrotation Yrotation
      JOINT lFoot
      {
        OFFSET 0.7333 -45.8593 -2.6451
        CHANNELS 6 Xposition Yposition Zposition Zrotation Xrotation Yrotation
        End Site
        {
          OFFSET 2.6618 -4.2699 12.3931
        }
      }
    }
  }
  JOINT rThigh
  {
    OFFSET -8.367 -8.2066 0.5982
    CHANNELS 6 Xposition Yposition Zposition Zrotation Xrotation Yrotation
    JOINT rShin
    {
      OFFSET -2.1923 -43.463 -0.4931
      CHANNELS 6 Xposition Yposition Zposition Zrotation Xrotation Yrotation
      JOINT rFoot
      {
        OFFSET -0.7333 -45.8593 -2.6451
        CHANNELS 6 Xposition Yposition Zposition Zrotation Xrotation Yrotation
        End Site
        {
          OFFSET -2.6618 -4.2699 12.3931
        }
      }
    }
  }
}
MOTION
Frames:	4
Frame Time:	0.0333333
-0.00411959 -0.570359 -85.2867 -180 -89.9981 -180 0 -1.186 -1.5018 -0.0627306 8.59698 -0.10809 0 9.964 0.2134 -0.110745 17.1941 -0.210149 -1.11022e-016 13.134 -3.2573 -0.110745 17.1941 -0.210149 0 20.686 -1.6905 4.06085e-007 -11.0596 -5.17226e-007 -1.11022e-016 7.238 -0.1237 -8.48482e-008 -26.9219 2.08341e-008 1.7069 20.075 5.0056 -2.80083 2.04385 9.81687 13.6458 -0.047 -4.849 -72.4534 2.90012 35.3521 28.3255 -0.9759 2.2888 33.1688 3.81195 -60.9048 22.1583 -0.53 10.8316 5.67972 23.4424 -5.96801 0.786 0.112 2.5817 3.18055e-015 -5.96354e-015 -0 0.3601 -0.878 4.2331 2.38542e-015 -1.15295e-014 3.18055e-015 1.8127 -1.216 2.2227 3.18055e-015 -1.98785e-016 -0 0.9571 1.114 1.7695 1.59028e-015 -9.93923e-016 3.18055e-015 4.1246 0.487 4.1451 1.19271e-015 -8.54774e-015 -0 3.4052 -1.454 2.7682 3.18055e-015 -7.55382e-015 -6.36111e-015 1.4531 -1.795 1.2713 5.56597e-015 -1.23246e-014 6.36111e-015 5.6954 0.21 2.1184 1.19271e-015 -8.54774e-015 -0 3.9766 -1.54 2.3863 3.18055e-015 -7.55382e-015 -6.36111e-015 1.4042 -1.926 1.125 5.56597e-015 -1.23246e-014 6.36111e-015 2.0956 0.66 -0.3894 1.59028e-015 -9.93923e-016 3.18055e-015 5.0395 -0.09 2.4971 1.19271e-015 -8.54774e-015 -0 3.7921 -1.552 1.4806 3.18055e-015 -7.55382e-015 -6.36111e-015 1.4655 -1.808 0.9609 5.56597e-015 -1.23246e-014 6.36111e-015 4.9141 -1.269 0.3591 1.19271e-015 -8.54774e-015 -0 3.1477 -1.685 0.8462 3.18055e-015 -7.55382e-015 -6.36111e-015 0.8055 -1.585 0.7955 5.56597e-015 -1.23246e-014 6.36111e-015 -1.7069 20.075 5.0056 2.69992 2.27242 -10.4051 -13.6458 -0.047 -4.849 73.263 2.52317 -34.6695 -28.3255 -0.9759 2.2888 -34.1685 2.06167 58.6349 -22.1583 -0.53 10.8316 -6.08725 23.5765 7.28427 -0.786 0.112 2.5817 7.95139e-016 -4.37326e-015 6.36111e-015 -0.3601 -0.878 4.2331 2.24371e-006 6.80562e-007 -5.75635e-007 -1.8127 -1.216 2.2227 4.77083e-015 -5.1684e-015 -0 -0.9571 1.114 1.7695 2.38542e-015 0 6.36111e-015 -4.1246 0.487 4.1451 -7.95139e-016 -3.57812e-015 1.90833e-014 -3.4052 -1.454 2.7682 2.24371e-006 6.80562e-007 -5.75636e-007 -1.4531 -1.795 1.2713 1.59028e-015 1.19271e-015 3.18055e-015 -5.6954 0.21 2.1184 -7.95139e-016 -3.57812e-015 1.90833e-014 -3.9766 -1.54 2.3863 2.24371e-006 6.80562e-007 -5.75636e-007 -1.4042 -1.926 1.125 1.59028e-015 1.19271e-015 3.18055e-015 -2.0956 0.66 -0.3894 2.38542e-015 0 6.36111e-015 -5.0395 -0.09 2.4971 -7.95139e-016 -3.57812e-015 1.90833e-014 -3.7921 -1.552 1.4806 2.24371e-006 6.80562e-007 -5.75636e-007 -1.4655 -1.808 0.9609 1.59028e-015 1.19271e-015 3.18055e-015 -4.9141 -1.269 0.3592 -7.95139e-016 -3.57812e-015 1.90833e-014 -3.1477 -1.685 0.8462 2.24371e-006 6.80562e-007 -5.75636e-007 -0.8055 -1.585 0.7955 1.59028e-015 1.19271e-015 3.18055e-015 8.367 -8.2066 0.5982 30.2939 -44.3226 0.538967 2.1923 -43.463 -0.4932 -164.51 82.8128 170.196 0.7333 -45.8593 -2.6451 4.27484 24.1133 7.49278 -8.367 -8.2066 0.5982 -29.1954 -44.3245 0.723733 -2.1923 -43.463 -0.4931 164.521 82.8121 -170.238 -0.7333 -45.8593 -2.6451 -3.29534 24.1881 -8.27701 
-0.00429464 -0.569718 -85.2859 -180 -89.9981 -180 0 -1.186 -1.5018 -0.0640844 8.88477 -0.107111 0 9.964 0.2134 -0.1132 17.7696 -0.207844 5.55112e-017 13.134 -3.2573 -0.1132 17.7696 -0.207844 1.11022e-016 20.686 -1.6905 8.6465e-006 -11.3222 2.02828e-006 -1.11022e-016 7.238 -0.1237 6.26359e-008 -27.2425 8.29026e-009 1.7069 20.075 5.0056 -3.12558 1.32837 9.4174 13.6458 -0.047 -4.849 -72.3133 2.95707 35.3217 28.3255 -0.9759 2.2888 33.1688 3.81194 -60.9047 22.1583 -0.53 10.8316 6.26127 22.6848 -6.32398 0.786 0.112 2.5817 3.97569e-016 6.95746e-015 -3.18055e-015 0.3601 -0.878 4.2331 -1.07366e-007 -2.37982e-006 -1.07709e-006 1.8127 -1.216 2.2227 1.07366e-007 2.37982e-006 1.07709e-006 0.9571 1.114 1.7695 3.97569e-016 7.7526e-015 -3.18055e-015 4.1246 0.487 4.1451 1.98785e-015 5.1684e-015 3.18055e-015 3.4052 -1.454 2.7682 -1.07366e-007 -2.37982e-006 -1.07709e-006 1.4531 -1.795 1.2713 1.07366e-007 2.37982e-006 1.07709e-006 5.6954 0.21 2.1184 1.98785e-015 5.1684e-015 3.18055e-015 3.9766 -1.54 2.3863 -1.07366e-007 -2.37982e-006 -1.07709e-006 1.4042 -1.926 1.125 1.07366e-007 2.37982e-006 1.07709e-006 2.0956 0.66 -0.3894 3.97569e-016 7.7526e-015 -3.18055e-015 5.0395 -0.09 2.4971 1.98785e-015 5.1684e-015 3.18055e-015 3.7921 -1.552 1.4806 -1.07366e-007 -2.37982e-006 -1.07709e-006 1.4655 -1.808 0.9609 1.07366e-007 2.37982e-006 1.07709e-006 4.9141 -1.269 0.3591 1.98785e-015 5.1684e-015 3.18055e-015 3.1477 -1.685 0.8462 -1.07366e-007 -2.37982e-006 -1.07709e-006 0.8055 -1.585 0.7955 1.07366e-007 2.37982e-006 1.07709e-006 -1.7069 20.075 5.0056 3.12188 1.54106 -9.89412 -13.6458 -0.047 -4.849 72.9856 2.63919 -34.6107 -28.3255 -0.9759 2.2888 -34.1669 2.0679 58.647 -22.1583 -0.53 10.8316 -6.63968 22.7078 7.53625 -0.786 0.112 2.5817 -1.59028e-015 -1.59028e-015 1.27222e-014 -0.3601 -0.878 4.2331 -7.95139e-016 -3.18055e-015 3.18055e-015 -1.8127 -1.216 2.2227 -2.38542e-015 -5.1684e-015 6.36111e-015 -0.9571 1.114 1.7695 -1.59028e-015 -1.98785e-015 1.27222e-014 -4.1246 0.487 4.1451 -7.95139e-016 -5.56597e-015 3.18055e-015 -3.4052 -1.454 2.7682 -7.95139e-016 7.95139e-016 -0 -1.4531 -1.795 1.2713 -7.95139e-016 0 9.54166e-015 -5.6954 0.21 2.1184 -7.95139e-016 -5.56597e-015 3.18055e-015 -3.9766 -1.54 2.3863 -7.95139e-016 7.95139e-016 -0 -1.4042 -1.926 1.125 -7.95139e-016 0 9.54166e-015 -2.0956 0.66 -0.3894 -1.59028e-015 -1.98785e-015 1.27222e-014 -5.0395 -0.09 2.4971 -7.95139e-016 -5.56597e-015 3.18055e-015 -3.7921 -1.552 1.4806 -7.95139e-016 7.95139e-016 -0 -1.4655 -1.808 0.9609 -7.95139e-016 0 9.54166e-015 -4.9141 -1.269 0.3592 -7.95139e-016 -5.56597e-015 3.18055e-015 -3.1477 -1.685 0.8462 -7.95139e-016 7.95139e-016 -0 -0.8055 -1.585 0.7955 -7.95139e-016 0 9.54166e-015 8.367 -8.2066 0.5982 29.9367 -44.3085 0.101613 2.1923 -43.463 -0.4932 -164.515 82.8127 170.209 0.7333 -45.8593 -2.6451 3.94568 24.1434 7.73969 -8.367 -8.2066 0.5982 -28.7909 -44.3047 1.21513 -2.1923 -43.463 -0.4931 164.527 82.8113 -170.254 -0.7333 -45.8593 -2.6451 -2.92371 24.2169 -8.55795 
-0.0044629 -0.569072 -85.285 -180 -89.9981 -180 0 -1.186 -1.5018 -0.0654418 9.17229 -0.106111 0 9.964 0.2134 -0.115686 18.3447 -0.205484 -5.55112e-017 13.134 -3.2573 -0.115686 18.3447 -0.205484 0 20.686 -1.6905 2.1637e-006 -11.5846 -4.35822e-007 1.11022e-016 7.238 -0.1237 -3.7635e-008 -27.5628 -2.0412e-008 1.7069 20.075 5.0056 -3.45517 0.615335 9.01405 13.6458 -0.047 -4.849 -72.173 3.01397 35.2912 28.3255 -0.9759 2.2888 33.1688 3.81194 -60.9047 22.1583 -0.53 10.8316 6.83445 21.9241 -6.66964 0.786 0.112 2.5817 -4.12142e-008 3.55171e-006 -3.16696e-006 0.3601 -0.878 4.2331 7.95139e-016 -1.11319e-014 3.18055e-015 1.8127 -1.216 2.2227 -3.97569e-016 -1.03368e-014 -0 0.9571 1.114 1.7695 1.59028e-015 1.98785e-016 6.36111e-015 4.1246 0.487 4.1451 -4.12142e-008 3.55171e-006 -3.16696e-006 3.4052 -1.454 2.7682 3.97569e-015 -5.36719e-015 -3.18055e-015 1.4531 -1.795 1.2713 7.95139e-016 -1.0138e-014 3.18055e-015 5.6954 0.21 2.1184 -4.12142e-008 3.55171e-006 -3.16696e-006 3.9766 -1.54 2.3863 3.97569e-015 -5.36719e-015 -3.18055e-015 1.4042 -1.926 1.125 7.95139e-016 -1.0138e-014 3.18055e-015 2.0956 0.66 -0.3894 1.59028e-015 1.98785e-016 6.36111e-015 5.0395 -0.09 2.4971 -4.12142e-008 3.55171e-006 -3.16696e-006 3.7921 -1.552 1.4806 3.97569e-015 -5.36719e-015 -3.18055e-015 1.4655 -1.808 0.9609 7.95139e-016 -1.0138e-014 3.18055e-015 4.9141 -1.269 0.3591 -4.12142e-008 3.55171e-006 -3.16696e-006 3.1477 -1.685 0.8462 3.97569e-015 -5.36719e-015 -3.18055e-015 0.8055 -1.585 0.7955 7.95139e-016 -1.0138e-014 3.18055e-015 -1.7069 20.075 5.0056 3.55011 0.813708 -9.37807 -13.6458 -0.047 -4.849 72.7081 2.75498 -34.5514 -28.3255 -0.9759 2.2888 -34.1654 2.07415 58.659 -22.1583 -0.53 10.8316 -7.18442 21.8372 7.77757 -0.786 0.112 2.5817 7.95139e-016 7.95139e-015 -0 -0.3601 -0.878 4.2331 1.59028e-015 4.77083e-015 3.18055e-015 -1.8127 -1.216 2.2227 3.18055e-015 9.14409e-015 3.18055e-015 -0.9571 1.114 1.7695 7.95139e-016 6.36111e-015 -0 -4.1246 0.487 4.1451 -3.97569e-015 1.35174e-014 9.54166e-015 -3.4052 -1.454 2.7682 -1.59028e-015 5.56597e-015 6.36111e-015 -1.4531 -1.795 1.2713 -3.18055e-015 5.56597e-015 -9.54166e-015 -5.6954 0.21 2.1184 -3.97569e-015 1.35174e-014 9.54166e-015 -3.9766 -1.54 2.3863 -1.59028e-015 5.56597e-015 6.36111e-015 -1.4042 -1.926 1.125 -3.18055e-015 5.56597e-015 -9.54166e-015 -2.0956 0.66 -0.3894 7.95139e-016 6.36111e-015 -0 -5.0395 -0.09 2.4971 -3.97569e-015 1.35174e-014 9.54166e-015 -3.7921 -1.552 1.4806 -1.59028e-015 5.56597e-015 6.36111e-015 -1.4655 -1.808 0.9609 -3.18055e-015 5.56597e-015 -9.54166e-015 -4.9141 -1.269 0.3592 -3.97569e-015 1.35174e-014 9.54166e-015 -3.1477 -1.685 0.8462 -1.59028e-015 5.56597e-015 6.36111e-015 -0.8055 -1.585 0.7955 -3.18055e-015 5.56597e-015 -9.54166e-015 8.367 -8.2066 0.5982 29.5793 -44.2929 -0.335793 2.1923 -43.463 -0.4932 -164.52 82.8124 170.222 0.7333 -45.8593 -2.6451 3.61635 24.1721 7.98684 -8.367 -8.2066 0.5982 -28.3877 -44.2818 1.70543 -2.1923 -43.463 -0.4931 164.532 82.8113 -170.269 -0.7333 -45.8593 -2.6451 -2.55193 24.2443 -8.83914 
-0.0046355 -0.568421 -85.2842 -180 -89.9981 -180 0 -1.186 -1.5018 -0.0668022 9.45939 -0.105092 0 9.964 0.2134 -0.118201 18.9189 -0.203068 5.55112e-017 13.134 -3.2573 -0.118201 18.9189 -0.203068 0 20.686 -1.6905 -2.73456e-006 -11.8468 -7.13348e-007 1.11022e-016 7.238 -0.1237 5.22017e-009 -27.8828 1.05022e-008 1.7069 20.075 5.0056 -3.78963 -0.0951151 8.60677 13.6458 -0.047 -4.849 -72.0328 3.07078 35.2606 28.3255 -0.9759 2.2888 33.1688 3.81197 -60.9048 22.1583 -0.53 10.8316 7.39948 21.1606 -7.00518 0.786 0.112 2.5817 1.98785e-015 5.96354e-016 -3.18055e-015 0.3601 -0.878 4.2331 2.78299e-015 -2.18663e-015 9.54166e-015 1.8127 -1.216 2.2227 -7.95139e-016 -6.16232e-015 -6.36111e-015 0.9571 1.114 1.7695 1.98785e-015 1.98785e-016 -3.18055e-015 4.1246 0.487 4.1451 3.97569e-015 -3.77691e-015 1.90833e-014 3.4052 -1.454 2.7682 -1.19271e-015 -2.38542e-015 6.36111e-015 1.4531 -1.795 1.2713 -2.38542e-015 7.95139e-016 -0 5.6954 0.21 2.1184 3.97569e-015 -3.77691e-015 1.90833e-014 3.9766 -1.54 2.3863 -1.19271e-015 -2.38542e-015 6.36111e-015 1.4042 -1.926 1.125 -2.38542e-015 7.95139e-016 -0 2.0956 0.66 -0.3894 1.98785e-015 1.98785e-016 -3.18055e-015 5.0395 -0.09 2.4971 3.97569e-015 -3.77691e-015 1.90833e-014 3.7921 -1.552 1.4806 -1.19271e-015 -2.38542e-015 6.36111e-015 1.4655 -1.808 0.9609 -2.38542e-015 7.95139e-016 -0 4.9141 -1.269 0.3591 3.97569e-015 -3.77691e-015 1.90833e-014 3.1477 -1.685 0.8462 -1.19271e-015 -2.38542e-015 6.36111e-015 0.8055 -1.585 0.7955 -2.38542e-015 7.95139e-016 -0 -1.7069 20.075 5.0056 3.98464 0.0905784 -8.85689 -13.6458 -0.047 -4.849 72.4305 2.87043 -34.4914 -28.3255 -0.9759 2.2888 -34.1638 2.0804 58.671 -22.1583 -0.53 10.8316 -7.72171 20.965 8.00852 -0.786 0.112 2.5817 -2.91381e-006 1.57983e-006 5.35509e-007 -0.3601 -0.878 4.2331 -2.91381e-006 1.57983e-006 5.35509e-007 -1.8127 -1.216 2.2227 -4.77083e-015 -1.59028e-015 -1.27222e-014 -0.9571 1.114 1.7695 7.95139e-016 4.37326e-015 3.18055e-015 -4.1246 0.487 4.1451 -2.91381e-006 1.57983e-006 5.35509e-007 -3.4052 -1.454 2.7682 -2.91381e-006 1.57983e-006 5.35509e-007 -1.4531 -1.795 1.2713 -2.38542e-015 -9.14409e-015 -6.36111e-015 -5.6954 0.21 2.1184 -2.91381e-006 1.57983e-006 5.35509e-007 -3.9766 -1.54 2.3863 -2.91381e-006 1.57983e-006 5.35509e-007 -1.4042 -1.926 1.125 -2.38542e-015 -9.14409e-015 -6.36111e-015 -2.0956 0.66 -0.3894 7.95139e-016 4.37326e-015 3.18055e-015 -5.0395 -0.09 2.4971 -2.91381e-006 1.57983e-006 5.35509e-007 -3.7921 -1.552 1.4806 -2.91381e-006 1.57983e-006 5.35509e-007 -1.4655 -1.808 0.9609 -2.38542e-015 -9.14409e-015 -6.36111e-015 -4.9141 -1.269 0.3592 -2.91381e-006 1.57983e-006 5.35509e-007 -3.1477 -1.685 0.8462 -2.91381e-006 1.57983e-006 5.35509e-007 -0.8055 -1.585 0.7955 -2.38542e-015 -9.14409e-015 -6.36111e-015 8.367 -8.2066 0.5982 29.222 -44.2756 -0.773089 2.1923 -43.463 -0.4932 -164.525 82.8117 170.237 0.7333 -45.8593 -2.6451 3.28687 24.1996 8.23418 -8.367 -8.2066 0.5982 -27.9849 -44.2566 2.19536 -2.1923 -43.463 -0.4931 164.538 82.8111 -170.284 -0.7333 -45.8593 -2.6451 -2.18 24.2699 -9.12053 
